<?xml version="1.0" standalone="no"?>
<!DOCTYPE svg PUBLIC "-//W3C//DTD SVG 20010904//EN"
 "http://www.w3.org/TR/2001/REC-SVG-20010904/DTD/svg10.dtd">
<svg version="1.0" xmlns="http://www.w3.org/2000/svg"
 width="512.000000pt" height="512.000000pt" viewBox="0 0 512.000000 512.000000"
 preserveAspectRatio="xMidYMid meet">

<g transform="translate(0.000000,512.000000) scale(0.100000,-0.100000)"
fill="#000000" stroke="none">
<path d="M2310 5079 c-986 -110 -1819 -775 -2141 -1707 -98 -286 -139 -532
-139 -839 0 -672 249 -1292 709 -1766 206 -212 414 -363 686 -497 189 -94 310
-139 489 -185 430 -109 853 -111 1274 -6 139 35 165 46 211 93 49 48 71 103
71 174 0 119 -81 220 -196 244 -52 11 -67 9 -179 -19 -179 -45 -291 -61 -465
-68 -961 -36 -1824 612 -2065 1551 -281 1097 386 2218 1489 2501 1097 281
2218 -387 2501 -1489 137 -535 51 -1103 -239 -1583 -67 -110 -81 -164 -66
-240 33 -158 215 -241 361 -165 42 22 64 43 102 97 66 97 219 409 262 535 168
489 189 996 61 1491 -47 183 -92 303 -186 494 -375 766 -1107 1279 -1970 1380
-134 16 -444 18 -570 4z"/>
<path d="M2471 4013 c-24 -9 -63 -35 -86 -58 -78 -78 -75 -33 -75 -970 0 -936
-3 -892 75 -970 98 -98 252 -98 350 0 78 78 75 34 75 970 0 936 3 892 -75 970
-69 70 -169 91 -264 58z"/>
<path d="M2471 1573 c-88 -31 -161 -136 -161 -233 0 -132 118 -250 250 -250
60 0 130 30 175 75 188 188 -12 497 -264 408z"/>
</g>
</svg>
