<?xml version="1.0" standalone="no"?>
<!DOCTYPE svg PUBLIC "-//W3C//DTD SVG 20010904//EN"
 "http://www.w3.org/TR/2001/REC-SVG-20010904/DTD/svg10.dtd">
<svg version="1.0" xmlns="http://www.w3.org/2000/svg"
 width="512.000000pt" height="512.000000pt" viewBox="0 0 512.000000 512.000000"
 preserveAspectRatio="xMidYMid meet">

<g transform="translate(0.000000,512.000000) scale(0.100000,-0.100000)"
fill="#000000" stroke="none">
<path d="M1230 4901 c-42 -14 -84 -38 -107 -63 -44 -46 -53 -88 -53 -237 l0
-140 -42 -11 c-257 -65 -488 -226 -631 -442 -103 -155 -158 -308 -177 -496 -8
-73 -10 -463 -8 -1242 4 -1118 4 -1136 25 -1222 113 -458 477 -778 943 -829
62 -6 568 -9 1450 -6 1343 3 1356 3 1440 24 205 52 355 132 499 268 102 96
164 181 227 310 60 125 90 227 105 365 6 61 9 497 6 1235 -3 1047 -5 1146 -21
1214 -43 182 -121 338 -239 480 -129 156 -343 288 -554 341 l-43 11 0 140 c0
103 -4 149 -15 177 -71 169 -319 169 -390 0 -11 -27 -15 -73 -15 -168 l0 -130
-430 0 -430 0 0 130 c0 95 -4 141 -15 168 -71 169 -319 169 -390 0 -11 -27
-15 -73 -15 -168 l0 -130 -430 0 -430 0 0 130 c0 139 -10 182 -53 228 -47 51
-149 82 -207 63z m1122 -994 c3 -138 4 -145 30 -183 15 -21 44 -50 65 -64 31
-21 48 -25 113 -25 65 0 82 4 113 25 21 14 50 43 65 64 26 38 27 45 30 183 l3
143 429 0 429 0 3 -143 c3 -138 4 -145 30 -183 15 -21 44 -50 65 -64 31 -21
48 -25 113 -25 65 0 82 4 113 25 21 14 50 43 65 64 25 37 27 47 30 163 2 75 8
123 14 123 5 0 42 -17 82 -37 105 -55 211 -165 265 -273 74 -151 71 -92 71
-1355 0 -951 -3 -1141 -15 -1200 -37 -179 -170 -350 -335 -433 -153 -77 -66
-73 -1603 -70 l-1372 3 -65 22 c-163 56 -308 180 -379 324 -74 150 -71 92 -71
1354 0 1263 -3 1204 71 1355 54 108 160 218 265 273 40 20 77 37 82 37 6 0 12
-48 14 -123 3 -112 5 -127 28 -160 14 -21 43 -50 64 -65 35 -24 49 -27 116
-27 65 0 82 4 113 25 21 14 50 43 65 64 26 38 27 45 30 183 l3 143 429 0 429
0 3 -143z"/>
<path d="M3135 2727 c-27 -14 -77 -53 -110 -87 -33 -34 -181 -179 -328 -323
l-268 -261 -147 146 c-81 80 -163 154 -182 164 -21 10 -58 17 -91 17 -110 0
-198 -81 -207 -189 -8 -102 4 -119 264 -371 129 -126 253 -238 276 -250 48
-27 130 -31 183 -9 21 9 197 175 454 427 437 429 461 457 461 536 0 158 -166
267 -305 200z"/>
</g>
</svg>
